<svg class="mx-auto" width="32" height="32" viewBox="0 0 32 32" fill="#000" xmlns="http://www.w3.org/2000/svg"><path fill-rule="evenodd" clip-rule="evenodd" d="M14.722 1.26303C14.722 1.11661 14.6023 0.99705 14.455 1.00006C8.78122 1.11585 4.21653 5.75229 4.21653 11.4538C4.21653 17.1553 8.78122 21.7917 14.455 21.9075C14.6023 21.9105 14.722 21.791 14.722 21.6446V19.7032C14.722 19.5562 14.6024 19.439 14.4575 19.4351C10.1478 19.3212 6.68832 15.7909 6.68832 11.4538C6.68832 7.11665 10.1478 3.58642 14.4575 3.47247C14.6024 3.46864 14.722 3.3514 14.722 3.20444V1.26303ZM19.5462 4.18066C13.8447 4.18066 9.20826 8.74536 9.09246 14.4192C9.08946 14.5664 9.20902 14.6861 9.35544 14.6861H11.2968C11.4438 14.6861 11.561 14.5665 11.5649 14.4216C11.6788 10.112 15.2091 6.65246 19.5462 6.65246C23.8833 6.65246 27.4136 10.112 27.5275 14.4216C27.5314 14.5665 27.6486 14.6861 27.7956 14.6861H29.737C29.8834 14.6861 30.003 14.5664 29.9999 14.4192C29.8841 8.74536 25.2477 4.18066 19.5462 4.18066ZM16.446 9.09246C16.2988 9.08946 16.1791 9.20902 16.1791 9.35544V11.2968C16.1791 11.4438 16.2987 11.561 16.4436 11.5649C20.7532 11.6788 24.2128 15.2091 24.2128 19.5462C24.2128 23.8833 20.7532 27.4136 16.4436 27.5275C16.2987 27.5314 16.1791 27.6486 16.1791 27.7956V29.737C16.1791 29.8834 16.2988 30.003 16.446 29.9999C22.1198 29.8841 26.6845 25.2477 26.6845 19.5462C26.6845 13.8447 22.1198 9.20826 16.446 9.09246ZM1.26303 16.1812C1.11661 16.1812 0.99705 16.3009 1.00006 16.4482C1.11585 22.122 5.75229 26.6867 11.4538 26.6867C17.1553 26.6867 21.7917 22.122 21.9075 16.4482C21.9105 16.3009 21.791 16.1812 21.6446 16.1812H19.7032C19.5562 16.1812 19.439 16.3008 19.4351 16.4457C19.3212 20.7553 15.7909 24.2149 11.4538 24.2149C7.11665 24.2149 3.58642 20.7553 3.47247 16.4457C3.46864 16.3008 3.3514 16.1812 3.20444 16.1812H1.26303Z"></path></svg>
