<?xml version="1.0" encoding="UTF-8"?>
<svg xmlns="http://www.w3.org/2000/svg" xmlns:xlink="http://www.w3.org/1999/xlink" width="64px" height="64px" viewBox="0 0 64 64" version="1.1">
<g id="surface1">
<path style=" stroke:none;fill-rule:evenodd;fill:rgb(0%,0%,0%);fill-opacity:1;" d="M 29.445312 2.527344 C 29.445312 2.234375 29.203125 1.992188 28.910156 2 C 17.5625 2.230469 8.433594 11.503906 8.433594 22.90625 C 8.433594 34.3125 17.5625 43.582031 28.910156 43.816406 C 29.203125 43.820312 29.445312 43.582031 29.445312 43.289062 L 29.445312 39.40625 C 29.445312 39.113281 29.203125 38.878906 28.914062 38.871094 C 20.296875 38.640625 13.375 31.582031 13.375 22.90625 C 13.375 14.234375 20.296875 7.171875 28.914062 6.945312 C 29.203125 6.9375 29.445312 6.703125 29.445312 6.410156 Z M 39.09375 8.359375 C 27.6875 8.359375 18.417969 17.492188 18.183594 28.839844 C 18.179688 29.132812 18.417969 29.371094 18.710938 29.371094 L 22.59375 29.371094 C 22.886719 29.371094 23.121094 29.132812 23.128906 28.84375 C 23.359375 20.222656 30.417969 13.304688 39.09375 13.304688 C 47.765625 13.304688 54.828125 20.222656 55.054688 28.84375 C 55.0625 29.132812 55.296875 29.371094 55.589844 29.371094 L 59.472656 29.371094 C 59.765625 29.371094 60.007812 29.132812 60 28.839844 C 59.769531 17.492188 50.496094 8.359375 39.09375 8.359375 Z M 32.890625 18.183594 C 32.597656 18.179688 32.359375 18.417969 32.359375 18.710938 L 32.359375 22.59375 C 32.359375 22.886719 32.597656 23.121094 32.886719 23.128906 C 41.507812 23.359375 48.425781 30.417969 48.425781 39.09375 C 48.425781 47.765625 41.507812 54.828125 32.886719 55.054688 C 32.597656 55.0625 32.359375 55.296875 32.359375 55.589844 L 32.359375 59.472656 C 32.359375 59.765625 32.597656 60.007812 32.890625 60 C 44.238281 59.769531 53.367188 50.496094 53.367188 39.09375 C 53.367188 27.6875 44.238281 18.417969 32.890625 18.183594 Z M 2.527344 32.363281 C 2.234375 32.363281 1.992188 32.601562 2 32.894531 C 2.230469 44.242188 11.503906 53.375 22.90625 53.375 C 34.3125 53.375 43.582031 44.242188 43.816406 32.894531 C 43.820312 32.601562 43.582031 32.363281 43.289062 32.363281 L 39.40625 32.363281 C 39.113281 32.363281 38.878906 32.601562 38.871094 32.890625 C 38.640625 41.511719 31.582031 48.429688 22.90625 48.429688 C 14.234375 48.429688 7.171875 41.511719 6.945312 32.890625 C 6.9375 32.601562 6.703125 32.363281 6.410156 32.363281 Z M 2.527344 32.363281 "/>
</g>
</svg>
