<?xml version="1.0" encoding="UTF-8"?>
<svg xmlns="http://www.w3.org/2000/svg" xmlns:xlink="http://www.w3.org/1999/xlink" width="64px" height="64px" viewBox="0 0 64 64" version="1.1">
<g id="surface1">
<path style=" stroke:none;fill-rule:evenodd;fill:rgb(0%,0%,0%);fill-opacity:1;" d="M 37.824219 47.21875 C 36.375 49.734375 35.648438 50.992188 34.824219 51.59375 C 33.140625 52.820312 30.859375 52.820312 29.175781 51.59375 C 28.351562 50.992188 27.625 49.734375 26.175781 47.21875 L 14.722656 27.324219 C 12.714844 23.839844 11.714844 22.097656 11.566406 20.691406 C 11.269531 17.820312 12.851562 15.082031 15.488281 13.910156 C 16.78125 13.332031 18.792969 13.332031 22.808594 13.332031 L 41.191406 13.332031 C 45.210938 13.332031 47.21875 13.332031 48.511719 13.910156 C 51.148438 15.082031 52.730469 17.820312 52.433594 20.691406 C 52.285156 22.097656 51.285156 23.839844 49.277344 27.324219 Z M 29.601562 43.578125 L 17.496094 22.613281 C 16.851562 21.5 16.53125 20.941406 16.484375 20.488281 C 16.386719 19.570312 16.894531 18.695312 17.738281 18.316406 C 18.152344 18.132812 18.796875 18.132812 20.082031 18.132812 L 29.601562 18.132812 Z M 34.398438 43.578125 L 46.503906 22.613281 C 47.148438 21.5 47.46875 20.941406 47.515625 20.488281 C 47.613281 19.570312 47.105469 18.695312 46.261719 18.316406 C 45.847656 18.132812 45.203125 18.132812 43.917969 18.132812 L 34.398438 18.132812 Z M 34.398438 43.578125 "/>
</g>
</svg>
